<?xml version="1.0" encoding="UTF-8"?>
<!DOCTYPE svg PUBLIC "-//W3C//DTD SVG 1.1//EN" "http://www.w3.org/Graphics/SVG/1.1/DTD/svg11.dtd">
<!-- Creator: CorelDRAW X7 -->
<svg xmlns="http://www.w3.org/2000/svg" xml:space="preserve" width="4.5in" height="1.28572in" version="1.1" style="shape-rendering:geometricPrecision; text-rendering:geometricPrecision; image-rendering:optimizeQuality; fill-rule:evenodd; clip-rule:evenodd"
viewBox="0 0 2599 743"
 xmlns:xlink="http://www.w3.org/1999/xlink">
 <defs>
  <style type="text/css">
   <![CDATA[
    .str0 {stroke:#002866;stroke-width:16.0434}
    .fil3 {fill:none}
    .fil2 {fill:none;fill-rule:nonzero}
    .fil0 {fill:#002866}
    .fil1 {fill:#002866;fill-rule:nonzero}
   ]]>
  </style>
 </defs>
 <g id="Layer_x0020_1">
  <metadata id="CorelCorpID_0Corel-Layer"/>
  <path class="fil0" d="M44 194l2243 -2c1,-8 1,-53 -1,-62 -16,2 -109,1 -133,1l-2109 1 0 62zm0 85l0 -61 2243 -1 1 30 134 -60 -1 -52c-6,-5 -8,-4 -16,-8 -7,-2 -9,-4 -17,-7l-34 -15c-6,-3 -11,-4 -17,-7l-50 -20 0 28 -2243 1 0 -62c60,0 2201,-1 2221,-1 5,0 13,0 18,0 9,1 101,42 112,47l127 54c9,4 23,11 33,16 -83,39 -169,74 -252,111 -16,7 -13,7 -28,7l-79 1c-18,-1 -36,0 -53,0 -6,0 -2091,-1 -2099,-1z"/>
  <path class="fil1" d="M1787 339l15 0 32 122 27 -122 23 0 -38 156 -22 0 -29 -109 -30 109 -22 0 -38 -156 23 0 27 122 32 -122zm254 156l-22 0 0 -156 22 0 0 156zm181 -143l22 0 0 143 -22 0 0 -143zm-43 -13l109 0 0 21 -109 0 0 -21zm331 0l21 0 0 156 -21 0 0 -156zm-89 0l22 0 0 156 -22 0 0 -156zm14 69l86 0 0 20 -86 0 0 -20zm-672 133l19 0 57 155 -23 0 -44 -125 -43 125 -23 0 57 -155zm-31 100l82 0 0 21 -82 0 0 -21zm168 -31l53 0c5,0 8,-1 11,-3 4,-2 6,-5 8,-9 2,-4 2,-8 2,-13l0 0c0,-4 0,-9 -2,-12 -2,-4 -4,-7 -8,-9 -3,-2 -6,-3 -11,-3l-53 0 0 -20 53 0c9,0 16,1 23,5 7,4 12,9 16,16 4,7 6,15 6,23l0 0c0,9 -2,17 -6,24 -4,7 -9,12 -16,16 -7,3 -15,5 -23,5l-53 0 0 -20zm-9 -69l22 0 0 155 -22 0 0 -155zm52 84l21 -4 40 75 -26 0 -35 -71zm166 28l11 -15 58 46 -11 14 -58 -45zm0 44c-11,0 -20,-2 -29,-7 -8,-4 -14,-11 -19,-20 -4,-8 -6,-18 -6,-30l0 -44c0,-11 2,-21 6,-30 5,-8 11,-15 19,-20 9,-5 18,-7 29,-7 11,0 20,2 29,7 8,5 14,12 19,20 4,9 7,19 7,30l0 44c0,12 -3,22 -7,30 -5,9 -11,16 -19,20 -9,5 -18,7 -29,7zm0 -21c6,0 12,-1 17,-4 5,-3 9,-7 11,-13 3,-5 4,-11 4,-18l0 -45c0,-7 -1,-14 -4,-19 -2,-5 -6,-9 -11,-12 -5,-3 -11,-4 -17,-4 -6,0 -12,1 -17,4 -5,3 -8,7 -11,12 -3,5 -4,12 -4,19l0 45c0,7 1,13 4,18 3,6 6,10 11,13 5,3 11,4 17,4zm173 21c-11,0 -21,-2 -29,-6 -8,-5 -15,-11 -19,-20 -4,-9 -6,-19 -6,-31l0 -99 22 0 0 99c0,12 2,21 8,27 6,6 14,9 24,9 11,0 19,-3 24,-9 6,-6 9,-15 9,-27l0 -99 22 0 0 99c0,12 -2,22 -7,31 -4,9 -10,15 -18,20 -8,4 -18,6 -30,6zm229 -156l20 0 0 155 -21 0 0 -116 1 6 -38 88 -15 0 -38 -85 1 -9 0 116 -22 0 0 -155 21 0 45 102 46 -102z"/>
  <g>
   <path class="fil2 str0" d="M185 691l-67 0 0 -344 67 0 0 344zm139 -344l64 0 0 344 -64 0 0 -344zm23 281l207 0 0 63 -207 0 0 -63zm0 -139l181 0 0 62 -181 0 0 -62zm0 -142l207 0 0 62 -207 0 0 -62zm334 0l65 0 0 344 -65 0 0 -344zm29 281l201 0 0 63 -201 0 0 -63zm349 -253l64 0 0 316 -64 0 0 -316zm-94 -28l252 0 0 62 -252 0 0 -62zm457 347c-17,0 -33,-1 -49,-5 -15,-3 -30,-8 -44,-14 -14,-7 -26,-14 -37,-23l0 0 30 -54 0 0c13,11 29,20 46,25 17,6 35,9 54,9 21,0 37,-3 49,-10 11,-8 17,-18 17,-31l0 0c0,-9 -2,-16 -8,-22 -5,-5 -12,-9 -20,-12 -8,-2 -19,-4 -32,-6 -1,-1 -1,-1 -1,-1 -1,0 -1,0 -2,0l-5 -1c-23,-3 -42,-8 -57,-13 -15,-6 -28,-15 -39,-29 -10,-13 -15,-33 -15,-58l0 0c0,-22 5,-41 14,-57 10,-16 25,-28 44,-36 19,-8 41,-13 68,-13 13,0 25,2 38,5 13,3 25,7 38,12 12,5 24,12 35,19l0 0 -28 55 0 0c-13,-9 -27,-16 -41,-21 -15,-5 -29,-8 -42,-8 -20,0 -35,4 -46,10 -11,7 -16,16 -16,28l0 0c0,10 3,18 8,24 6,5 13,10 21,12 9,3 20,6 36,9 0,0 1,0 1,0 1,0 2,0 2,0 1,1 2,1 3,1 1,0 2,0 3,1 22,4 40,9 54,15 15,6 27,16 37,29 10,14 14,32 14,56l0 0c0,22 -5,41 -15,56 -10,16 -25,28 -45,36 -19,8 -43,12 -70,12z"/>
   <path id="1" class="fil1" d="M185 691l-67 0 0 -344 67 0 0 344zm139 -344l64 0 0 344 -64 0 0 -344zm23 281l207 0 0 63 -207 0 0 -63zm0 -139l181 0 0 62 -181 0 0 -62zm0 -142l207 0 0 62 -207 0 0 -62zm334 0l65 0 0 344 -65 0 0 -344zm29 281l201 0 0 63 -201 0 0 -63zm349 -253l64 0 0 316 -64 0 0 -316zm-94 -28l252 0 0 62 -252 0 0 -62zm457 347c-17,0 -33,-1 -49,-5 -15,-3 -30,-8 -44,-14 -14,-7 -26,-14 -37,-23l0 0 30 -54 0 0c13,11 29,20 46,25 17,6 35,9 54,9 21,0 37,-3 49,-10 11,-8 17,-18 17,-31l0 0c0,-9 -2,-16 -8,-22 -5,-5 -12,-9 -20,-12 -8,-2 -19,-4 -32,-6 -1,-1 -1,-1 -1,-1 -1,0 -1,0 -2,0l-5 -1c-23,-3 -42,-8 -57,-13 -15,-6 -28,-15 -39,-29 -10,-13 -15,-33 -15,-58l0 0c0,-22 5,-41 14,-57 10,-16 25,-28 44,-36 19,-8 41,-13 68,-13 13,0 25,2 38,5 13,3 25,7 38,12 12,5 24,12 35,19l0 0 -28 55 0 0c-13,-9 -27,-16 -41,-21 -15,-5 -29,-8 -42,-8 -20,0 -35,4 -46,10 -11,7 -16,16 -16,28l0 0c0,10 3,18 8,24 6,5 13,10 21,12 9,3 20,6 36,9 0,0 1,0 1,0 1,0 2,0 2,0 1,1 2,1 3,1 1,0 2,0 3,1 22,4 40,9 54,15 15,6 27,16 37,29 10,14 14,32 14,56l0 0c0,22 -5,41 -15,56 -10,16 -25,28 -45,36 -19,8 -43,12 -70,12z"/>
  </g>
  <rect class="fil3" width="2599" height="743"/>
 </g>
</svg>
